<?xml version="1.0" encoding="utf-8" standalone="no"?>
<!DOCTYPE svg PUBLIC "-//W3C//DTD SVG 1.1//EN"
  "http://www.w3.org/Graphics/SVG/1.1/DTD/svg11.dtd">
<svg xmlns:xlink="http://www.w3.org/1999/xlink" width="720pt" height="432pt" viewBox="0 0 720 432" xmlns="http://www.w3.org/2000/svg" version="1.1">
 <metadata>
  <rdf:RDF xmlns:dc="http://purl.org/dc/elements/1.1/" xmlns:cc="http://creativecommons.org/ns#" xmlns:rdf="http://www.w3.org/1999/02/22-rdf-syntax-ns#">
   <cc:Work>
    <dc:type rdf:resource="http://purl.org/dc/dcmitype/StillImage"/>
    <dc:date>2025-11-05T23:27:36.049864</dc:date>
    <dc:format>image/svg+xml</dc:format>
    <dc:creator>
     <cc:Agent>
      <dc:title>Matplotlib v3.10.7, https://matplotlib.org/</dc:title>
     </cc:Agent>
    </dc:creator>
   </cc:Work>
  </rdf:RDF>
 </metadata>
 <defs>
  <style type="text/css">*{stroke-linejoin: round; stroke-linecap: butt}</style>
 </defs>
 <g id="figure_1">
  <g id="patch_1">
   <path d="M 0 432 
L 720 432 
L 720 0 
L 0 0 
z
" style="fill: #ffffff"/>
  </g>
  <g id="axes_1">
   <g id="patch_2">
    <path d="M 151.95 393.54 
L 709.2 393.54 
L 709.2 28.42125 
L 151.95 28.42125 
z
" style="fill: #ffffff"/>
   </g>
   <g id="matplotlib.axis_1">
    <g id="xtick_1">
     <g id="line2d_1">
      <path d="M 151.95 393.54 
L 151.95 28.42125 
" clip-path="url(#pff938528d9)" style="fill: none; stroke: #cccccc; stroke-width: 0.8; stroke-linecap: round"/>
     </g>
     <g id="line2d_2"/>
     <g id="text_1">
      <!-- 0 -->
      <g style="fill: #262626" transform="translate(149.169531 404.197812) scale(0.1 -0.1)">
       <defs>
        <path id="ArialMT-30" d="M 266 2259 
Q 266 3072 433 3567 
Q 600 4063 929 4331 
Q 1259 4600 1759 4600 
Q 2128 4600 2406 4451 
Q 2684 4303 2865 4023 
Q 3047 3744 3150 3342 
Q 3253 2941 3253 2259 
Q 3253 1453 3087 958 
Q 2922 463 2592 192 
Q 2263 -78 1759 -78 
Q 1097 -78 719 397 
Q 266 969 266 2259 
z
M 844 2259 
Q 844 1131 1108 757 
Q 1372 384 1759 384 
Q 2147 384 2411 759 
Q 2675 1134 2675 2259 
Q 2675 3391 2411 3762 
Q 2147 4134 1753 4134 
Q 1366 4134 1134 3806 
Q 844 3388 844 2259 
z
" transform="scale(0.015625)"/>
       </defs>
       <use xlink:href="#ArialMT-30"/>
      </g>
     </g>
    </g>
    <g id="xtick_2">
     <g id="line2d_3">
      <path d="M 222.150302 393.54 
L 222.150302 28.42125 
" clip-path="url(#pff938528d9)" style="fill: none; stroke: #cccccc; stroke-width: 0.8; stroke-linecap: round"/>
     </g>
     <g id="line2d_4"/>
     <g id="text_2">
      <!-- 200 -->
      <g style="fill: #262626" transform="translate(213.808896 404.197812) scale(0.1 -0.1)">
       <defs>
        <path id="ArialMT-32" d="M 3222 541 
L 3222 0 
L 194 0 
Q 188 203 259 391 
Q 375 700 629 1000 
Q 884 1300 1366 1694 
Q 2113 2306 2375 2664 
Q 2638 3022 2638 3341 
Q 2638 3675 2398 3904 
Q 2159 4134 1775 4134 
Q 1369 4134 1125 3890 
Q 881 3647 878 3216 
L 300 3275 
Q 359 3922 746 4261 
Q 1134 4600 1788 4600 
Q 2447 4600 2831 4234 
Q 3216 3869 3216 3328 
Q 3216 3053 3103 2787 
Q 2991 2522 2730 2228 
Q 2469 1934 1863 1422 
Q 1356 997 1212 845 
Q 1069 694 975 541 
L 3222 541 
z
" transform="scale(0.015625)"/>
       </defs>
       <use xlink:href="#ArialMT-32"/>
       <use xlink:href="#ArialMT-30" transform="translate(55.615234 0)"/>
       <use xlink:href="#ArialMT-30" transform="translate(111.230469 0)"/>
      </g>
     </g>
    </g>
    <g id="xtick_3">
     <g id="line2d_5">
      <path d="M 292.350605 393.54 
L 292.350605 28.42125 
" clip-path="url(#pff938528d9)" style="fill: none; stroke: #cccccc; stroke-width: 0.8; stroke-linecap: round"/>
     </g>
     <g id="line2d_6"/>
     <g id="text_3">
      <!-- 400 -->
      <g style="fill: #262626" transform="translate(284.009198 404.197812) scale(0.1 -0.1)">
       <defs>
        <path id="ArialMT-34" d="M 2069 0 
L 2069 1097 
L 81 1097 
L 81 1613 
L 2172 4581 
L 2631 4581 
L 2631 1613 
L 3250 1613 
L 3250 1097 
L 2631 1097 
L 2631 0 
L 2069 0 
z
M 2069 1613 
L 2069 3678 
L 634 1613 
L 2069 1613 
z
" transform="scale(0.015625)"/>
       </defs>
       <use xlink:href="#ArialMT-34"/>
       <use xlink:href="#ArialMT-30" transform="translate(55.615234 0)"/>
       <use xlink:href="#ArialMT-30" transform="translate(111.230469 0)"/>
      </g>
     </g>
    </g>
    <g id="xtick_4">
     <g id="line2d_7">
      <path d="M 362.550907 393.54 
L 362.550907 28.42125 
" clip-path="url(#pff938528d9)" style="fill: none; stroke: #cccccc; stroke-width: 0.8; stroke-linecap: round"/>
     </g>
     <g id="line2d_8"/>
     <g id="text_4">
      <!-- 600 -->
      <g style="fill: #262626" transform="translate(354.209501 404.197812) scale(0.1 -0.1)">
       <defs>
        <path id="ArialMT-36" d="M 3184 3459 
L 2625 3416 
Q 2550 3747 2413 3897 
Q 2184 4138 1850 4138 
Q 1581 4138 1378 3988 
Q 1113 3794 959 3422 
Q 806 3050 800 2363 
Q 1003 2672 1297 2822 
Q 1591 2972 1913 2972 
Q 2475 2972 2870 2558 
Q 3266 2144 3266 1488 
Q 3266 1056 3080 686 
Q 2894 316 2569 119 
Q 2244 -78 1831 -78 
Q 1128 -78 684 439 
Q 241 956 241 2144 
Q 241 3472 731 4075 
Q 1159 4600 1884 4600 
Q 2425 4600 2770 4297 
Q 3116 3994 3184 3459 
z
M 888 1484 
Q 888 1194 1011 928 
Q 1134 663 1356 523 
Q 1578 384 1822 384 
Q 2178 384 2434 671 
Q 2691 959 2691 1453 
Q 2691 1928 2437 2201 
Q 2184 2475 1800 2475 
Q 1419 2475 1153 2201 
Q 888 1928 888 1484 
z
" transform="scale(0.015625)"/>
       </defs>
       <use xlink:href="#ArialMT-36"/>
       <use xlink:href="#ArialMT-30" transform="translate(55.615234 0)"/>
       <use xlink:href="#ArialMT-30" transform="translate(111.230469 0)"/>
      </g>
     </g>
    </g>
    <g id="xtick_5">
     <g id="line2d_9">
      <path d="M 432.751209 393.54 
L 432.751209 28.42125 
" clip-path="url(#pff938528d9)" style="fill: none; stroke: #cccccc; stroke-width: 0.8; stroke-linecap: round"/>
     </g>
     <g id="line2d_10"/>
     <g id="text_5">
      <!-- 800 -->
      <g style="fill: #262626" transform="translate(424.409803 404.197812) scale(0.1 -0.1)">
       <defs>
        <path id="ArialMT-38" d="M 1131 2484 
Q 781 2613 612 2850 
Q 444 3088 444 3419 
Q 444 3919 803 4259 
Q 1163 4600 1759 4600 
Q 2359 4600 2725 4251 
Q 3091 3903 3091 3403 
Q 3091 3084 2923 2848 
Q 2756 2613 2416 2484 
Q 2838 2347 3058 2040 
Q 3278 1734 3278 1309 
Q 3278 722 2862 322 
Q 2447 -78 1769 -78 
Q 1091 -78 675 323 
Q 259 725 259 1325 
Q 259 1772 486 2073 
Q 713 2375 1131 2484 
z
M 1019 3438 
Q 1019 3113 1228 2906 
Q 1438 2700 1772 2700 
Q 2097 2700 2305 2904 
Q 2513 3109 2513 3406 
Q 2513 3716 2298 3927 
Q 2084 4138 1766 4138 
Q 1444 4138 1231 3931 
Q 1019 3725 1019 3438 
z
M 838 1322 
Q 838 1081 952 856 
Q 1066 631 1291 507 
Q 1516 384 1775 384 
Q 2178 384 2440 643 
Q 2703 903 2703 1303 
Q 2703 1709 2433 1975 
Q 2163 2241 1756 2241 
Q 1359 2241 1098 1978 
Q 838 1716 838 1322 
z
" transform="scale(0.015625)"/>
       </defs>
       <use xlink:href="#ArialMT-38"/>
       <use xlink:href="#ArialMT-30" transform="translate(55.615234 0)"/>
       <use xlink:href="#ArialMT-30" transform="translate(111.230469 0)"/>
      </g>
     </g>
    </g>
    <g id="xtick_6">
     <g id="line2d_11">
      <path d="M 502.951512 393.54 
L 502.951512 28.42125 
" clip-path="url(#pff938528d9)" style="fill: none; stroke: #cccccc; stroke-width: 0.8; stroke-linecap: round"/>
     </g>
     <g id="line2d_12"/>
     <g id="text_6">
      <!-- 1000 -->
      <g style="fill: #262626" transform="translate(491.829637 404.197812) scale(0.1 -0.1)">
       <defs>
        <path id="ArialMT-31" d="M 2384 0 
L 1822 0 
L 1822 3584 
Q 1619 3391 1289 3197 
Q 959 3003 697 2906 
L 697 3450 
Q 1169 3672 1522 3987 
Q 1875 4303 2022 4600 
L 2384 4600 
L 2384 0 
z
" transform="scale(0.015625)"/>
       </defs>
       <use xlink:href="#ArialMT-31"/>
       <use xlink:href="#ArialMT-30" transform="translate(55.615234 0)"/>
       <use xlink:href="#ArialMT-30" transform="translate(111.230469 0)"/>
       <use xlink:href="#ArialMT-30" transform="translate(166.845703 0)"/>
      </g>
     </g>
    </g>
    <g id="xtick_7">
     <g id="line2d_13">
      <path d="M 573.151814 393.54 
L 573.151814 28.42125 
" clip-path="url(#pff938528d9)" style="fill: none; stroke: #cccccc; stroke-width: 0.8; stroke-linecap: round"/>
     </g>
     <g id="line2d_14"/>
     <g id="text_7">
      <!-- 1200 -->
      <g style="fill: #262626" transform="translate(562.029939 404.197812) scale(0.1 -0.1)">
       <use xlink:href="#ArialMT-31"/>
       <use xlink:href="#ArialMT-32" transform="translate(55.615234 0)"/>
       <use xlink:href="#ArialMT-30" transform="translate(111.230469 0)"/>
       <use xlink:href="#ArialMT-30" transform="translate(166.845703 0)"/>
      </g>
     </g>
    </g>
    <g id="xtick_8">
     <g id="line2d_15">
      <path d="M 643.352116 393.54 
L 643.352116 28.42125 
" clip-path="url(#pff938528d9)" style="fill: none; stroke: #cccccc; stroke-width: 0.8; stroke-linecap: round"/>
     </g>
     <g id="line2d_16"/>
     <g id="text_8">
      <!-- 1400 -->
      <g style="fill: #262626" transform="translate(632.230241 404.197812) scale(0.1 -0.1)">
       <use xlink:href="#ArialMT-31"/>
       <use xlink:href="#ArialMT-34" transform="translate(55.615234 0)"/>
       <use xlink:href="#ArialMT-30" transform="translate(111.230469 0)"/>
       <use xlink:href="#ArialMT-30" transform="translate(166.845703 0)"/>
      </g>
     </g>
    </g>
    <g id="text_9">
     <!-- Number of visits -->
     <g style="fill: #262626" transform="translate(394.734375 417.343125) scale(0.1 -0.1)">
      <defs>
       <path id="ArialMT-4e" d="M 488 0 
L 488 4581 
L 1109 4581 
L 3516 984 
L 3516 4581 
L 4097 4581 
L 4097 0 
L 3475 0 
L 1069 3600 
L 1069 0 
L 488 0 
z
" transform="scale(0.015625)"/>
       <path id="ArialMT-75" d="M 2597 0 
L 2597 488 
Q 2209 -75 1544 -75 
Q 1250 -75 995 37 
Q 741 150 617 320 
Q 494 491 444 738 
Q 409 903 409 1263 
L 409 3319 
L 972 3319 
L 972 1478 
Q 972 1038 1006 884 
Q 1059 663 1231 536 
Q 1403 409 1656 409 
Q 1909 409 2131 539 
Q 2353 669 2445 892 
Q 2538 1116 2538 1541 
L 2538 3319 
L 3100 3319 
L 3100 0 
L 2597 0 
z
" transform="scale(0.015625)"/>
       <path id="ArialMT-6d" d="M 422 0 
L 422 3319 
L 925 3319 
L 925 2853 
Q 1081 3097 1340 3245 
Q 1600 3394 1931 3394 
Q 2300 3394 2536 3241 
Q 2772 3088 2869 2813 
Q 3263 3394 3894 3394 
Q 4388 3394 4653 3120 
Q 4919 2847 4919 2278 
L 4919 0 
L 4359 0 
L 4359 2091 
Q 4359 2428 4304 2576 
Q 4250 2725 4106 2815 
Q 3963 2906 3769 2906 
Q 3419 2906 3187 2673 
Q 2956 2441 2956 1928 
L 2956 0 
L 2394 0 
L 2394 2156 
Q 2394 2531 2256 2718 
Q 2119 2906 1806 2906 
Q 1569 2906 1367 2781 
Q 1166 2656 1075 2415 
Q 984 2175 984 1722 
L 984 0 
L 422 0 
z
" transform="scale(0.015625)"/>
       <path id="ArialMT-62" d="M 941 0 
L 419 0 
L 419 4581 
L 981 4581 
L 981 2947 
Q 1338 3394 1891 3394 
Q 2197 3394 2470 3270 
Q 2744 3147 2920 2923 
Q 3097 2700 3197 2384 
Q 3297 2069 3297 1709 
Q 3297 856 2875 390 
Q 2453 -75 1863 -75 
Q 1275 -75 941 416 
L 941 0 
z
M 934 1684 
Q 934 1088 1097 822 
Q 1363 388 1816 388 
Q 2184 388 2453 708 
Q 2722 1028 2722 1663 
Q 2722 2313 2464 2622 
Q 2206 2931 1841 2931 
Q 1472 2931 1203 2611 
Q 934 2291 934 1684 
z
" transform="scale(0.015625)"/>
       <path id="ArialMT-65" d="M 2694 1069 
L 3275 997 
Q 3138 488 2766 206 
Q 2394 -75 1816 -75 
Q 1088 -75 661 373 
Q 234 822 234 1631 
Q 234 2469 665 2931 
Q 1097 3394 1784 3394 
Q 2450 3394 2872 2941 
Q 3294 2488 3294 1666 
Q 3294 1616 3291 1516 
L 816 1516 
Q 847 969 1125 678 
Q 1403 388 1819 388 
Q 2128 388 2347 550 
Q 2566 713 2694 1069 
z
M 847 1978 
L 2700 1978 
Q 2663 2397 2488 2606 
Q 2219 2931 1791 2931 
Q 1403 2931 1139 2672 
Q 875 2413 847 1978 
z
" transform="scale(0.015625)"/>
       <path id="ArialMT-72" d="M 416 0 
L 416 3319 
L 922 3319 
L 922 2816 
Q 1116 3169 1280 3281 
Q 1444 3394 1641 3394 
Q 1925 3394 2219 3213 
L 2025 2691 
Q 1819 2813 1613 2813 
Q 1428 2813 1281 2702 
Q 1134 2591 1072 2394 
Q 978 2094 978 1738 
L 978 0 
L 416 0 
z
" transform="scale(0.015625)"/>
       <path id="ArialMT-20" transform="scale(0.015625)"/>
       <path id="ArialMT-6f" d="M 213 1659 
Q 213 2581 725 3025 
Q 1153 3394 1769 3394 
Q 2453 3394 2887 2945 
Q 3322 2497 3322 1706 
Q 3322 1066 3130 698 
Q 2938 331 2570 128 
Q 2203 -75 1769 -75 
Q 1072 -75 642 372 
Q 213 819 213 1659 
z
M 791 1659 
Q 791 1022 1069 705 
Q 1347 388 1769 388 
Q 2188 388 2466 706 
Q 2744 1025 2744 1678 
Q 2744 2294 2464 2611 
Q 2184 2928 1769 2928 
Q 1347 2928 1069 2612 
Q 791 2297 791 1659 
z
" transform="scale(0.015625)"/>
       <path id="ArialMT-66" d="M 556 0 
L 556 2881 
L 59 2881 
L 59 3319 
L 556 3319 
L 556 3672 
Q 556 4006 616 4169 
Q 697 4388 901 4523 
Q 1106 4659 1475 4659 
Q 1713 4659 2000 4603 
L 1916 4113 
Q 1741 4144 1584 4144 
Q 1328 4144 1222 4034 
Q 1116 3925 1116 3625 
L 1116 3319 
L 1763 3319 
L 1763 2881 
L 1116 2881 
L 1116 0 
L 556 0 
z
" transform="scale(0.015625)"/>
       <path id="ArialMT-76" d="M 1344 0 
L 81 3319 
L 675 3319 
L 1388 1331 
Q 1503 1009 1600 663 
Q 1675 925 1809 1294 
L 2547 3319 
L 3125 3319 
L 1869 0 
L 1344 0 
z
" transform="scale(0.015625)"/>
       <path id="ArialMT-69" d="M 425 3934 
L 425 4581 
L 988 4581 
L 988 3934 
L 425 3934 
z
M 425 0 
L 425 3319 
L 988 3319 
L 988 0 
L 425 0 
z
" transform="scale(0.015625)"/>
       <path id="ArialMT-73" d="M 197 991 
L 753 1078 
Q 800 744 1014 566 
Q 1228 388 1613 388 
Q 2000 388 2187 545 
Q 2375 703 2375 916 
Q 2375 1106 2209 1216 
Q 2094 1291 1634 1406 
Q 1016 1563 777 1677 
Q 538 1791 414 1992 
Q 291 2194 291 2438 
Q 291 2659 392 2848 
Q 494 3038 669 3163 
Q 800 3259 1026 3326 
Q 1253 3394 1513 3394 
Q 1903 3394 2198 3281 
Q 2494 3169 2634 2976 
Q 2775 2784 2828 2463 
L 2278 2388 
Q 2241 2644 2061 2787 
Q 1881 2931 1553 2931 
Q 1166 2931 1000 2803 
Q 834 2675 834 2503 
Q 834 2394 903 2306 
Q 972 2216 1119 2156 
Q 1203 2125 1616 2013 
Q 2213 1853 2448 1751 
Q 2684 1650 2818 1456 
Q 2953 1263 2953 975 
Q 2953 694 2789 445 
Q 2625 197 2315 61 
Q 2006 -75 1616 -75 
Q 969 -75 630 194 
Q 291 463 197 991 
z
" transform="scale(0.015625)"/>
       <path id="ArialMT-74" d="M 1650 503 
L 1731 6 
Q 1494 -44 1306 -44 
Q 1000 -44 831 53 
Q 663 150 594 308 
Q 525 466 525 972 
L 525 2881 
L 113 2881 
L 113 3319 
L 525 3319 
L 525 4141 
L 1084 4478 
L 1084 3319 
L 1650 3319 
L 1650 2881 
L 1084 2881 
L 1084 941 
Q 1084 700 1114 631 
Q 1144 563 1211 522 
Q 1278 481 1403 481 
Q 1497 481 1650 503 
z
" transform="scale(0.015625)"/>
      </defs>
      <use xlink:href="#ArialMT-4e"/>
      <use xlink:href="#ArialMT-75" transform="translate(72.216797 0)"/>
      <use xlink:href="#ArialMT-6d" transform="translate(127.832031 0)"/>
      <use xlink:href="#ArialMT-62" transform="translate(211.132812 0)"/>
      <use xlink:href="#ArialMT-65" transform="translate(266.748047 0)"/>
      <use xlink:href="#ArialMT-72" transform="translate(322.363281 0)"/>
      <use xlink:href="#ArialMT-20" transform="translate(355.664062 0)"/>
      <use xlink:href="#ArialMT-6f" transform="translate(383.447266 0)"/>
      <use xlink:href="#ArialMT-66" transform="translate(439.0625 0)"/>
      <use xlink:href="#ArialMT-20" transform="translate(466.845703 0)"/>
      <use xlink:href="#ArialMT-76" transform="translate(494.628906 0)"/>
      <use xlink:href="#ArialMT-69" transform="translate(544.628906 0)"/>
      <use xlink:href="#ArialMT-73" transform="translate(566.845703 0)"/>
      <use xlink:href="#ArialMT-69" transform="translate(616.845703 0)"/>
      <use xlink:href="#ArialMT-74" transform="translate(639.0625 0)"/>
      <use xlink:href="#ArialMT-73" transform="translate(666.845703 0)"/>
     </g>
    </g>
   </g>
   <g id="matplotlib.axis_2">
    <g id="ytick_1">
     <g id="line2d_17"/>
     <g id="text_10">
      <!-- chronic care - art follow-up -->
      <g style="fill: #262626" transform="translate(30.635938 50.317031) scale(0.1 -0.1)">
       <defs>
        <path id="ArialMT-63" d="M 2588 1216 
L 3141 1144 
Q 3050 572 2676 248 
Q 2303 -75 1759 -75 
Q 1078 -75 664 370 
Q 250 816 250 1647 
Q 250 2184 428 2587 
Q 606 2991 970 3192 
Q 1334 3394 1763 3394 
Q 2303 3394 2647 3120 
Q 2991 2847 3088 2344 
L 2541 2259 
Q 2463 2594 2264 2762 
Q 2066 2931 1784 2931 
Q 1359 2931 1093 2626 
Q 828 2322 828 1663 
Q 828 994 1084 691 
Q 1341 388 1753 388 
Q 2084 388 2306 591 
Q 2528 794 2588 1216 
z
" transform="scale(0.015625)"/>
        <path id="ArialMT-68" d="M 422 0 
L 422 4581 
L 984 4581 
L 984 2938 
Q 1378 3394 1978 3394 
Q 2347 3394 2619 3248 
Q 2891 3103 3008 2847 
Q 3125 2591 3125 2103 
L 3125 0 
L 2563 0 
L 2563 2103 
Q 2563 2525 2380 2717 
Q 2197 2909 1863 2909 
Q 1613 2909 1392 2779 
Q 1172 2650 1078 2428 
Q 984 2206 984 1816 
L 984 0 
L 422 0 
z
" transform="scale(0.015625)"/>
        <path id="ArialMT-6e" d="M 422 0 
L 422 3319 
L 928 3319 
L 928 2847 
Q 1294 3394 1984 3394 
Q 2284 3394 2536 3286 
Q 2788 3178 2913 3003 
Q 3038 2828 3088 2588 
Q 3119 2431 3119 2041 
L 3119 0 
L 2556 0 
L 2556 2019 
Q 2556 2363 2490 2533 
Q 2425 2703 2258 2804 
Q 2091 2906 1866 2906 
Q 1506 2906 1245 2678 
Q 984 2450 984 1813 
L 984 0 
L 422 0 
z
" transform="scale(0.015625)"/>
        <path id="ArialMT-61" d="M 2588 409 
Q 2275 144 1986 34 
Q 1697 -75 1366 -75 
Q 819 -75 525 192 
Q 231 459 231 875 
Q 231 1119 342 1320 
Q 453 1522 633 1644 
Q 813 1766 1038 1828 
Q 1203 1872 1538 1913 
Q 2219 1994 2541 2106 
Q 2544 2222 2544 2253 
Q 2544 2597 2384 2738 
Q 2169 2928 1744 2928 
Q 1347 2928 1158 2789 
Q 969 2650 878 2297 
L 328 2372 
Q 403 2725 575 2942 
Q 747 3159 1072 3276 
Q 1397 3394 1825 3394 
Q 2250 3394 2515 3294 
Q 2781 3194 2906 3042 
Q 3031 2891 3081 2659 
Q 3109 2516 3109 2141 
L 3109 1391 
Q 3109 606 3145 398 
Q 3181 191 3288 0 
L 2700 0 
Q 2613 175 2588 409 
z
M 2541 1666 
Q 2234 1541 1622 1453 
Q 1275 1403 1131 1340 
Q 988 1278 909 1158 
Q 831 1038 831 891 
Q 831 666 1001 516 
Q 1172 366 1500 366 
Q 1825 366 2078 508 
Q 2331 650 2450 897 
Q 2541 1088 2541 1459 
L 2541 1666 
z
" transform="scale(0.015625)"/>
        <path id="ArialMT-2d" d="M 203 1375 
L 203 1941 
L 1931 1941 
L 1931 1375 
L 203 1375 
z
" transform="scale(0.015625)"/>
        <path id="ArialMT-6c" d="M 409 0 
L 409 4581 
L 972 4581 
L 972 0 
L 409 0 
z
" transform="scale(0.015625)"/>
        <path id="ArialMT-77" d="M 1034 0 
L 19 3319 
L 600 3319 
L 1128 1403 
L 1325 691 
Q 1338 744 1497 1375 
L 2025 3319 
L 2603 3319 
L 3100 1394 
L 3266 759 
L 3456 1400 
L 4025 3319 
L 4572 3319 
L 3534 0 
L 2950 0 
L 2422 1988 
L 2294 2553 
L 1622 0 
L 1034 0 
z
" transform="scale(0.015625)"/>
        <path id="ArialMT-70" d="M 422 -1272 
L 422 3319 
L 934 3319 
L 934 2888 
Q 1116 3141 1344 3267 
Q 1572 3394 1897 3394 
Q 2322 3394 2647 3175 
Q 2972 2956 3137 2557 
Q 3303 2159 3303 1684 
Q 3303 1175 3120 767 
Q 2938 359 2589 142 
Q 2241 -75 1856 -75 
Q 1575 -75 1351 44 
Q 1128 163 984 344 
L 984 -1272 
L 422 -1272 
z
M 931 1641 
Q 931 1000 1190 694 
Q 1450 388 1819 388 
Q 2194 388 2461 705 
Q 2728 1022 2728 1688 
Q 2728 2322 2467 2637 
Q 2206 2953 1844 2953 
Q 1484 2953 1207 2617 
Q 931 2281 931 1641 
z
" transform="scale(0.015625)"/>
       </defs>
       <use xlink:href="#ArialMT-63"/>
       <use xlink:href="#ArialMT-68" transform="translate(50 0)"/>
       <use xlink:href="#ArialMT-72" transform="translate(105.615234 0)"/>
       <use xlink:href="#ArialMT-6f" transform="translate(138.916016 0)"/>
       <use xlink:href="#ArialMT-6e" transform="translate(194.53125 0)"/>
       <use xlink:href="#ArialMT-69" transform="translate(250.146484 0)"/>
       <use xlink:href="#ArialMT-63" transform="translate(272.363281 0)"/>
       <use xlink:href="#ArialMT-20" transform="translate(322.363281 0)"/>
       <use xlink:href="#ArialMT-63" transform="translate(350.146484 0)"/>
       <use xlink:href="#ArialMT-61" transform="translate(400.146484 0)"/>
       <use xlink:href="#ArialMT-72" transform="translate(455.761719 0)"/>
       <use xlink:href="#ArialMT-65" transform="translate(489.0625 0)"/>
       <use xlink:href="#ArialMT-20" transform="translate(544.677734 0)"/>
       <use xlink:href="#ArialMT-2d" transform="translate(572.460938 0)"/>
       <use xlink:href="#ArialMT-20" transform="translate(605.761719 0)"/>
       <use xlink:href="#ArialMT-61" transform="translate(633.544922 0)"/>
       <use xlink:href="#ArialMT-72" transform="translate(689.160156 0)"/>
       <use xlink:href="#ArialMT-74" transform="translate(722.460938 0)"/>
       <use xlink:href="#ArialMT-20" transform="translate(750.244141 0)"/>
       <use xlink:href="#ArialMT-66" transform="translate(778.027344 0)"/>
       <use xlink:href="#ArialMT-6f" transform="translate(805.810547 0)"/>
       <use xlink:href="#ArialMT-6c" transform="translate(861.425781 0)"/>
       <use xlink:href="#ArialMT-6c" transform="translate(883.642578 0)"/>
       <use xlink:href="#ArialMT-6f" transform="translate(905.859375 0)"/>
       <use xlink:href="#ArialMT-77" transform="translate(961.474609 0)"/>
       <use xlink:href="#ArialMT-2d" transform="translate(1033.691406 0)"/>
       <use xlink:href="#ArialMT-75" transform="translate(1066.992188 0)"/>
       <use xlink:href="#ArialMT-70" transform="translate(1122.607422 0)"/>
      </g>
     </g>
    </g>
    <g id="ytick_2">
     <g id="line2d_18"/>
     <g id="text_11">
      <!-- chronic care - hypertension -->
      <g style="fill: #262626" transform="translate(27.84375 86.767969) scale(0.1 -0.1)">
       <defs>
        <path id="ArialMT-79" d="M 397 -1278 
L 334 -750 
Q 519 -800 656 -800 
Q 844 -800 956 -737 
Q 1069 -675 1141 -563 
Q 1194 -478 1313 -144 
Q 1328 -97 1363 -6 
L 103 3319 
L 709 3319 
L 1400 1397 
Q 1534 1031 1641 628 
Q 1738 1016 1872 1384 
L 2581 3319 
L 3144 3319 
L 1881 -56 
Q 1678 -603 1566 -809 
Q 1416 -1088 1222 -1217 
Q 1028 -1347 759 -1347 
Q 597 -1347 397 -1278 
z
" transform="scale(0.015625)"/>
       </defs>
       <use xlink:href="#ArialMT-63"/>
       <use xlink:href="#ArialMT-68" transform="translate(50 0)"/>
       <use xlink:href="#ArialMT-72" transform="translate(105.615234 0)"/>
       <use xlink:href="#ArialMT-6f" transform="translate(138.916016 0)"/>
       <use xlink:href="#ArialMT-6e" transform="translate(194.53125 0)"/>
       <use xlink:href="#ArialMT-69" transform="translate(250.146484 0)"/>
       <use xlink:href="#ArialMT-63" transform="translate(272.363281 0)"/>
       <use xlink:href="#ArialMT-20" transform="translate(322.363281 0)"/>
       <use xlink:href="#ArialMT-63" transform="translate(350.146484 0)"/>
       <use xlink:href="#ArialMT-61" transform="translate(400.146484 0)"/>
       <use xlink:href="#ArialMT-72" transform="translate(455.761719 0)"/>
       <use xlink:href="#ArialMT-65" transform="translate(489.0625 0)"/>
       <use xlink:href="#ArialMT-20" transform="translate(544.677734 0)"/>
       <use xlink:href="#ArialMT-2d" transform="translate(572.460938 0)"/>
       <use xlink:href="#ArialMT-20" transform="translate(605.761719 0)"/>
       <use xlink:href="#ArialMT-68" transform="translate(633.544922 0)"/>
       <use xlink:href="#ArialMT-79" transform="translate(689.160156 0)"/>
       <use xlink:href="#ArialMT-70" transform="translate(739.160156 0)"/>
       <use xlink:href="#ArialMT-65" transform="translate(794.775391 0)"/>
       <use xlink:href="#ArialMT-72" transform="translate(850.390625 0)"/>
       <use xlink:href="#ArialMT-74" transform="translate(883.691406 0)"/>
       <use xlink:href="#ArialMT-65" transform="translate(911.474609 0)"/>
       <use xlink:href="#ArialMT-6e" transform="translate(967.089844 0)"/>
       <use xlink:href="#ArialMT-73" transform="translate(1022.705078 0)"/>
       <use xlink:href="#ArialMT-69" transform="translate(1072.705078 0)"/>
       <use xlink:href="#ArialMT-6f" transform="translate(1094.921875 0)"/>
       <use xlink:href="#ArialMT-6e" transform="translate(1150.537109 0)"/>
      </g>
     </g>
    </g>
    <g id="ytick_3">
     <g id="line2d_19"/>
     <g id="text_12">
      <!-- minor ailment - first visit -->
      <g style="fill: #262626" transform="translate(43.440625 123.279844) scale(0.1 -0.1)">
       <use xlink:href="#ArialMT-6d"/>
       <use xlink:href="#ArialMT-69" transform="translate(83.300781 0)"/>
       <use xlink:href="#ArialMT-6e" transform="translate(105.517578 0)"/>
       <use xlink:href="#ArialMT-6f" transform="translate(161.132812 0)"/>
       <use xlink:href="#ArialMT-72" transform="translate(216.748047 0)"/>
       <use xlink:href="#ArialMT-20" transform="translate(250.048828 0)"/>
       <use xlink:href="#ArialMT-61" transform="translate(277.832031 0)"/>
       <use xlink:href="#ArialMT-69" transform="translate(333.447266 0)"/>
       <use xlink:href="#ArialMT-6c" transform="translate(355.664062 0)"/>
       <use xlink:href="#ArialMT-6d" transform="translate(377.880859 0)"/>
       <use xlink:href="#ArialMT-65" transform="translate(461.181641 0)"/>
       <use xlink:href="#ArialMT-6e" transform="translate(516.796875 0)"/>
       <use xlink:href="#ArialMT-74" transform="translate(572.412109 0)"/>
       <use xlink:href="#ArialMT-20" transform="translate(600.195312 0)"/>
       <use xlink:href="#ArialMT-2d" transform="translate(627.978516 0)"/>
       <use xlink:href="#ArialMT-20" transform="translate(661.279297 0)"/>
       <use xlink:href="#ArialMT-66" transform="translate(689.0625 0)"/>
       <use xlink:href="#ArialMT-69" transform="translate(716.845703 0)"/>
       <use xlink:href="#ArialMT-72" transform="translate(739.0625 0)"/>
       <use xlink:href="#ArialMT-73" transform="translate(772.363281 0)"/>
       <use xlink:href="#ArialMT-74" transform="translate(822.363281 0)"/>
       <use xlink:href="#ArialMT-20" transform="translate(850.146484 0)"/>
       <use xlink:href="#ArialMT-76" transform="translate(877.929688 0)"/>
       <use xlink:href="#ArialMT-69" transform="translate(927.929688 0)"/>
       <use xlink:href="#ArialMT-73" transform="translate(950.146484 0)"/>
       <use xlink:href="#ArialMT-69" transform="translate(1000.146484 0)"/>
       <use xlink:href="#ArialMT-74" transform="translate(1022.363281 0)"/>
      </g>
     </g>
    </g>
    <g id="ytick_4">
     <g id="line2d_20"/>
     <g id="text_13">
      <!-- maternity - antenatal -->
      <g style="fill: #262626" transform="translate(57.3 159.791719) scale(0.1 -0.1)">
       <use xlink:href="#ArialMT-6d"/>
       <use xlink:href="#ArialMT-61" transform="translate(83.300781 0)"/>
       <use xlink:href="#ArialMT-74" transform="translate(138.916016 0)"/>
       <use xlink:href="#ArialMT-65" transform="translate(166.699219 0)"/>
       <use xlink:href="#ArialMT-72" transform="translate(222.314453 0)"/>
       <use xlink:href="#ArialMT-6e" transform="translate(255.615234 0)"/>
       <use xlink:href="#ArialMT-69" transform="translate(311.230469 0)"/>
       <use xlink:href="#ArialMT-74" transform="translate(333.447266 0)"/>
       <use xlink:href="#ArialMT-79" transform="translate(361.230469 0)"/>
       <use xlink:href="#ArialMT-20" transform="translate(411.230469 0)"/>
       <use xlink:href="#ArialMT-2d" transform="translate(439.013672 0)"/>
       <use xlink:href="#ArialMT-20" transform="translate(472.314453 0)"/>
       <use xlink:href="#ArialMT-61" transform="translate(500.097656 0)"/>
       <use xlink:href="#ArialMT-6e" transform="translate(555.712891 0)"/>
       <use xlink:href="#ArialMT-74" transform="translate(611.328125 0)"/>
       <use xlink:href="#ArialMT-65" transform="translate(639.111328 0)"/>
       <use xlink:href="#ArialMT-6e" transform="translate(694.726562 0)"/>
       <use xlink:href="#ArialMT-61" transform="translate(750.341797 0)"/>
       <use xlink:href="#ArialMT-74" transform="translate(805.957031 0)"/>
       <use xlink:href="#ArialMT-61" transform="translate(833.740234 0)"/>
       <use xlink:href="#ArialMT-6c" transform="translate(889.355469 0)"/>
      </g>
     </g>
    </g>
    <g id="ytick_5">
     <g id="line2d_21"/>
     <g id="text_14">
      <!-- minor ailment - follow-up -->
      <g style="fill: #262626" transform="translate(39.53125 196.364531) scale(0.1 -0.1)">
       <use xlink:href="#ArialMT-6d"/>
       <use xlink:href="#ArialMT-69" transform="translate(83.300781 0)"/>
       <use xlink:href="#ArialMT-6e" transform="translate(105.517578 0)"/>
       <use xlink:href="#ArialMT-6f" transform="translate(161.132812 0)"/>
       <use xlink:href="#ArialMT-72" transform="translate(216.748047 0)"/>
       <use xlink:href="#ArialMT-20" transform="translate(250.048828 0)"/>
       <use xlink:href="#ArialMT-61" transform="translate(277.832031 0)"/>
       <use xlink:href="#ArialMT-69" transform="translate(333.447266 0)"/>
       <use xlink:href="#ArialMT-6c" transform="translate(355.664062 0)"/>
       <use xlink:href="#ArialMT-6d" transform="translate(377.880859 0)"/>
       <use xlink:href="#ArialMT-65" transform="translate(461.181641 0)"/>
       <use xlink:href="#ArialMT-6e" transform="translate(516.796875 0)"/>
       <use xlink:href="#ArialMT-74" transform="translate(572.412109 0)"/>
       <use xlink:href="#ArialMT-20" transform="translate(600.195312 0)"/>
       <use xlink:href="#ArialMT-2d" transform="translate(627.978516 0)"/>
       <use xlink:href="#ArialMT-20" transform="translate(661.279297 0)"/>
       <use xlink:href="#ArialMT-66" transform="translate(689.0625 0)"/>
       <use xlink:href="#ArialMT-6f" transform="translate(716.845703 0)"/>
       <use xlink:href="#ArialMT-6c" transform="translate(772.460938 0)"/>
       <use xlink:href="#ArialMT-6c" transform="translate(794.677734 0)"/>
       <use xlink:href="#ArialMT-6f" transform="translate(816.894531 0)"/>
       <use xlink:href="#ArialMT-77" transform="translate(872.509766 0)"/>
       <use xlink:href="#ArialMT-2d" transform="translate(944.726562 0)"/>
       <use xlink:href="#ArialMT-75" transform="translate(978.027344 0)"/>
       <use xlink:href="#ArialMT-70" transform="translate(1033.642578 0)"/>
      </g>
     </g>
    </g>
    <g id="ytick_6">
     <g id="line2d_22"/>
     <g id="text_15">
      <!-- chronic care - other -->
      <g style="fill: #262626" transform="translate(62.309375 232.815469) scale(0.1 -0.1)">
       <use xlink:href="#ArialMT-63"/>
       <use xlink:href="#ArialMT-68" transform="translate(50 0)"/>
       <use xlink:href="#ArialMT-72" transform="translate(105.615234 0)"/>
       <use xlink:href="#ArialMT-6f" transform="translate(138.916016 0)"/>
       <use xlink:href="#ArialMT-6e" transform="translate(194.53125 0)"/>
       <use xlink:href="#ArialMT-69" transform="translate(250.146484 0)"/>
       <use xlink:href="#ArialMT-63" transform="translate(272.363281 0)"/>
       <use xlink:href="#ArialMT-20" transform="translate(322.363281 0)"/>
       <use xlink:href="#ArialMT-63" transform="translate(350.146484 0)"/>
       <use xlink:href="#ArialMT-61" transform="translate(400.146484 0)"/>
       <use xlink:href="#ArialMT-72" transform="translate(455.761719 0)"/>
       <use xlink:href="#ArialMT-65" transform="translate(489.0625 0)"/>
       <use xlink:href="#ArialMT-20" transform="translate(544.677734 0)"/>
       <use xlink:href="#ArialMT-2d" transform="translate(572.460938 0)"/>
       <use xlink:href="#ArialMT-20" transform="translate(605.761719 0)"/>
       <use xlink:href="#ArialMT-6f" transform="translate(633.544922 0)"/>
       <use xlink:href="#ArialMT-74" transform="translate(689.160156 0)"/>
       <use xlink:href="#ArialMT-68" transform="translate(716.943359 0)"/>
       <use xlink:href="#ArialMT-65" transform="translate(772.558594 0)"/>
       <use xlink:href="#ArialMT-72" transform="translate(828.173828 0)"/>
      </g>
     </g>
    </g>
    <g id="ytick_7">
     <g id="line2d_23"/>
     <g id="text_16">
      <!-- family planning - follow-up -->
      <g style="fill: #262626" transform="translate(32.846875 269.388281) scale(0.1 -0.1)">
       <defs>
        <path id="ArialMT-67" d="M 319 -275 
L 866 -356 
Q 900 -609 1056 -725 
Q 1266 -881 1628 -881 
Q 2019 -881 2231 -725 
Q 2444 -569 2519 -288 
Q 2563 -116 2559 434 
Q 2191 0 1641 0 
Q 956 0 581 494 
Q 206 988 206 1678 
Q 206 2153 378 2554 
Q 550 2956 876 3175 
Q 1203 3394 1644 3394 
Q 2231 3394 2613 2919 
L 2613 3319 
L 3131 3319 
L 3131 450 
Q 3131 -325 2973 -648 
Q 2816 -972 2473 -1159 
Q 2131 -1347 1631 -1347 
Q 1038 -1347 672 -1080 
Q 306 -813 319 -275 
z
M 784 1719 
Q 784 1066 1043 766 
Q 1303 466 1694 466 
Q 2081 466 2343 764 
Q 2606 1063 2606 1700 
Q 2606 2309 2336 2618 
Q 2066 2928 1684 2928 
Q 1309 2928 1046 2623 
Q 784 2319 784 1719 
z
" transform="scale(0.015625)"/>
       </defs>
       <use xlink:href="#ArialMT-66"/>
       <use xlink:href="#ArialMT-61" transform="translate(27.783203 0)"/>
       <use xlink:href="#ArialMT-6d" transform="translate(83.398438 0)"/>
       <use xlink:href="#ArialMT-69" transform="translate(166.699219 0)"/>
       <use xlink:href="#ArialMT-6c" transform="translate(188.916016 0)"/>
       <use xlink:href="#ArialMT-79" transform="translate(211.132812 0)"/>
       <use xlink:href="#ArialMT-20" transform="translate(261.132812 0)"/>
       <use xlink:href="#ArialMT-70" transform="translate(288.916016 0)"/>
       <use xlink:href="#ArialMT-6c" transform="translate(344.53125 0)"/>
       <use xlink:href="#ArialMT-61" transform="translate(366.748047 0)"/>
       <use xlink:href="#ArialMT-6e" transform="translate(422.363281 0)"/>
       <use xlink:href="#ArialMT-6e" transform="translate(477.978516 0)"/>
       <use xlink:href="#ArialMT-69" transform="translate(533.59375 0)"/>
       <use xlink:href="#ArialMT-6e" transform="translate(555.810547 0)"/>
       <use xlink:href="#ArialMT-67" transform="translate(611.425781 0)"/>
       <use xlink:href="#ArialMT-20" transform="translate(667.041016 0)"/>
       <use xlink:href="#ArialMT-2d" transform="translate(694.824219 0)"/>
       <use xlink:href="#ArialMT-20" transform="translate(728.125 0)"/>
       <use xlink:href="#ArialMT-66" transform="translate(755.908203 0)"/>
       <use xlink:href="#ArialMT-6f" transform="translate(783.691406 0)"/>
       <use xlink:href="#ArialMT-6c" transform="translate(839.306641 0)"/>
       <use xlink:href="#ArialMT-6c" transform="translate(861.523438 0)"/>
       <use xlink:href="#ArialMT-6f" transform="translate(883.740234 0)"/>
       <use xlink:href="#ArialMT-77" transform="translate(939.355469 0)"/>
       <use xlink:href="#ArialMT-2d" transform="translate(1011.572266 0)"/>
       <use xlink:href="#ArialMT-75" transform="translate(1044.873047 0)"/>
       <use xlink:href="#ArialMT-70" transform="translate(1100.488281 0)"/>
      </g>
     </g>
    </g>
    <g id="ytick_8">
     <g id="line2d_24"/>
     <g id="text_17">
      <!-- chronic care - ccmdd -->
      <g style="fill: #262626" transform="translate(55.648438 305.839219) scale(0.1 -0.1)">
       <defs>
        <path id="ArialMT-64" d="M 2575 0 
L 2575 419 
Q 2259 -75 1647 -75 
Q 1250 -75 917 144 
Q 584 363 401 755 
Q 219 1147 219 1656 
Q 219 2153 384 2558 
Q 550 2963 881 3178 
Q 1213 3394 1622 3394 
Q 1922 3394 2156 3267 
Q 2391 3141 2538 2938 
L 2538 4581 
L 3097 4581 
L 3097 0 
L 2575 0 
z
M 797 1656 
Q 797 1019 1065 703 
Q 1334 388 1700 388 
Q 2069 388 2326 689 
Q 2584 991 2584 1609 
Q 2584 2291 2321 2609 
Q 2059 2928 1675 2928 
Q 1300 2928 1048 2622 
Q 797 2316 797 1656 
z
" transform="scale(0.015625)"/>
       </defs>
       <use xlink:href="#ArialMT-63"/>
       <use xlink:href="#ArialMT-68" transform="translate(50 0)"/>
       <use xlink:href="#ArialMT-72" transform="translate(105.615234 0)"/>
       <use xlink:href="#ArialMT-6f" transform="translate(138.916016 0)"/>
       <use xlink:href="#ArialMT-6e" transform="translate(194.53125 0)"/>
       <use xlink:href="#ArialMT-69" transform="translate(250.146484 0)"/>
       <use xlink:href="#ArialMT-63" transform="translate(272.363281 0)"/>
       <use xlink:href="#ArialMT-20" transform="translate(322.363281 0)"/>
       <use xlink:href="#ArialMT-63" transform="translate(350.146484 0)"/>
       <use xlink:href="#ArialMT-61" transform="translate(400.146484 0)"/>
       <use xlink:href="#ArialMT-72" transform="translate(455.761719 0)"/>
       <use xlink:href="#ArialMT-65" transform="translate(489.0625 0)"/>
       <use xlink:href="#ArialMT-20" transform="translate(544.677734 0)"/>
       <use xlink:href="#ArialMT-2d" transform="translate(572.460938 0)"/>
       <use xlink:href="#ArialMT-20" transform="translate(605.761719 0)"/>
       <use xlink:href="#ArialMT-63" transform="translate(633.544922 0)"/>
       <use xlink:href="#ArialMT-63" transform="translate(683.544922 0)"/>
       <use xlink:href="#ArialMT-6d" transform="translate(733.544922 0)"/>
       <use xlink:href="#ArialMT-64" transform="translate(816.845703 0)"/>
       <use xlink:href="#ArialMT-64" transform="translate(872.460938 0)"/>
      </g>
     </g>
    </g>
    <g id="ytick_9">
     <g id="line2d_25"/>
     <g id="text_18">
      <!-- chronic care - diabetes -->
      <g style="fill: #262626" transform="translate(47.295313 342.351094) scale(0.1 -0.1)">
       <use xlink:href="#ArialMT-63"/>
       <use xlink:href="#ArialMT-68" transform="translate(50 0)"/>
       <use xlink:href="#ArialMT-72" transform="translate(105.615234 0)"/>
       <use xlink:href="#ArialMT-6f" transform="translate(138.916016 0)"/>
       <use xlink:href="#ArialMT-6e" transform="translate(194.53125 0)"/>
       <use xlink:href="#ArialMT-69" transform="translate(250.146484 0)"/>
       <use xlink:href="#ArialMT-63" transform="translate(272.363281 0)"/>
       <use xlink:href="#ArialMT-20" transform="translate(322.363281 0)"/>
       <use xlink:href="#ArialMT-63" transform="translate(350.146484 0)"/>
       <use xlink:href="#ArialMT-61" transform="translate(400.146484 0)"/>
       <use xlink:href="#ArialMT-72" transform="translate(455.761719 0)"/>
       <use xlink:href="#ArialMT-65" transform="translate(489.0625 0)"/>
       <use xlink:href="#ArialMT-20" transform="translate(544.677734 0)"/>
       <use xlink:href="#ArialMT-2d" transform="translate(572.460938 0)"/>
       <use xlink:href="#ArialMT-20" transform="translate(605.761719 0)"/>
       <use xlink:href="#ArialMT-64" transform="translate(633.544922 0)"/>
       <use xlink:href="#ArialMT-69" transform="translate(689.160156 0)"/>
       <use xlink:href="#ArialMT-61" transform="translate(711.376953 0)"/>
       <use xlink:href="#ArialMT-62" transform="translate(766.992188 0)"/>
       <use xlink:href="#ArialMT-65" transform="translate(822.607422 0)"/>
       <use xlink:href="#ArialMT-74" transform="translate(878.222656 0)"/>
       <use xlink:href="#ArialMT-65" transform="translate(906.005859 0)"/>
       <use xlink:href="#ArialMT-73" transform="translate(961.621094 0)"/>
      </g>
     </g>
    </g>
    <g id="ytick_10">
     <g id="line2d_26"/>
     <g id="text_19">
      <!-- chronic care - mental health -->
      <g style="fill: #262626" transform="translate(25.065625 378.862969) scale(0.1 -0.1)">
       <use xlink:href="#ArialMT-63"/>
       <use xlink:href="#ArialMT-68" transform="translate(50 0)"/>
       <use xlink:href="#ArialMT-72" transform="translate(105.615234 0)"/>
       <use xlink:href="#ArialMT-6f" transform="translate(138.916016 0)"/>
       <use xlink:href="#ArialMT-6e" transform="translate(194.53125 0)"/>
       <use xlink:href="#ArialMT-69" transform="translate(250.146484 0)"/>
       <use xlink:href="#ArialMT-63" transform="translate(272.363281 0)"/>
       <use xlink:href="#ArialMT-20" transform="translate(322.363281 0)"/>
       <use xlink:href="#ArialMT-63" transform="translate(350.146484 0)"/>
       <use xlink:href="#ArialMT-61" transform="translate(400.146484 0)"/>
       <use xlink:href="#ArialMT-72" transform="translate(455.761719 0)"/>
       <use xlink:href="#ArialMT-65" transform="translate(489.0625 0)"/>
       <use xlink:href="#ArialMT-20" transform="translate(544.677734 0)"/>
       <use xlink:href="#ArialMT-2d" transform="translate(572.460938 0)"/>
       <use xlink:href="#ArialMT-20" transform="translate(605.761719 0)"/>
       <use xlink:href="#ArialMT-6d" transform="translate(633.544922 0)"/>
       <use xlink:href="#ArialMT-65" transform="translate(716.845703 0)"/>
       <use xlink:href="#ArialMT-6e" transform="translate(772.460938 0)"/>
       <use xlink:href="#ArialMT-74" transform="translate(828.076172 0)"/>
       <use xlink:href="#ArialMT-61" transform="translate(855.859375 0)"/>
       <use xlink:href="#ArialMT-6c" transform="translate(911.474609 0)"/>
       <use xlink:href="#ArialMT-20" transform="translate(933.691406 0)"/>
       <use xlink:href="#ArialMT-68" transform="translate(961.474609 0)"/>
       <use xlink:href="#ArialMT-65" transform="translate(1017.089844 0)"/>
       <use xlink:href="#ArialMT-61" transform="translate(1072.705078 0)"/>
       <use xlink:href="#ArialMT-6c" transform="translate(1128.320312 0)"/>
       <use xlink:href="#ArialMT-74" transform="translate(1150.537109 0)"/>
       <use xlink:href="#ArialMT-68" transform="translate(1178.320312 0)"/>
      </g>
     </g>
    </g>
    <g id="text_20">
     <!-- Visit reason -->
     <g style="fill: #262626" transform="translate(19.078125 237.015) rotate(-90) scale(0.1 -0.1)">
      <defs>
       <path id="ArialMT-56" d="M 1803 0 
L 28 4581 
L 684 4581 
L 1875 1253 
Q 2019 853 2116 503 
Q 2222 878 2363 1253 
L 3600 4581 
L 4219 4581 
L 2425 0 
L 1803 0 
z
" transform="scale(0.015625)"/>
      </defs>
      <use xlink:href="#ArialMT-56"/>
      <use xlink:href="#ArialMT-69" transform="translate(64.949219 0)"/>
      <use xlink:href="#ArialMT-73" transform="translate(87.166016 0)"/>
      <use xlink:href="#ArialMT-69" transform="translate(137.166016 0)"/>
      <use xlink:href="#ArialMT-74" transform="translate(159.382812 0)"/>
      <use xlink:href="#ArialMT-20" transform="translate(187.166016 0)"/>
      <use xlink:href="#ArialMT-72" transform="translate(214.949219 0)"/>
      <use xlink:href="#ArialMT-65" transform="translate(248.25 0)"/>
      <use xlink:href="#ArialMT-61" transform="translate(303.865234 0)"/>
      <use xlink:href="#ArialMT-73" transform="translate(359.480469 0)"/>
      <use xlink:href="#ArialMT-6f" transform="translate(409.480469 0)"/>
      <use xlink:href="#ArialMT-6e" transform="translate(465.095703 0)"/>
     </g>
    </g>
   </g>
   <g id="patch_3">
    <path d="M 151.95 32.072437 
L 682.664286 32.072437 
L 682.664286 61.281937 
L 151.95 61.281937 
z
" clip-path="url(#pff938528d9)" style="fill: #492c68"/>
   </g>
   <g id="patch_4">
    <path d="M 151.95 68.584312 
L 328.152759 68.584312 
L 328.152759 97.793812 
L 151.95 97.793812 
z
" clip-path="url(#pff938528d9)" style="fill: #4a477c"/>
   </g>
   <g id="patch_5">
    <path d="M 151.95 105.096187 
L 321.48373 105.096187 
L 321.48373 134.305687 
L 151.95 134.305687 
z
" clip-path="url(#pff938528d9)" style="fill: #435a82"/>
   </g>
   <g id="patch_6">
    <path d="M 151.95 141.608062 
L 208.461243 141.608062 
L 208.461243 170.817562 
L 151.95 170.817562 
z
" clip-path="url(#pff938528d9)" style="fill: #396b82"/>
   </g>
   <g id="patch_7">
    <path d="M 151.95 178.119937 
L 193.017177 178.119937 
L 193.017177 207.329437 
L 151.95 207.329437 
z
" clip-path="url(#pff938528d9)" style="fill: #327a81"/>
   </g>
   <g id="patch_8">
    <path d="M 151.95 214.631812 
L 182.838133 214.631812 
L 182.838133 243.841312 
L 151.95 243.841312 
z
" clip-path="url(#pff938528d9)" style="fill: #2e8b7e"/>
   </g>
   <g id="patch_9">
    <path d="M 151.95 251.143687 
L 181.434127 251.143687 
L 181.434127 280.353187 
L 151.95 280.353187 
z
" clip-path="url(#pff938528d9)" style="fill: #3b9f7a"/>
   </g>
   <g id="patch_10">
    <path d="M 151.95 287.655562 
L 173.712094 287.655562 
L 173.712094 316.865062 
L 151.95 316.865062 
z
" clip-path="url(#pff938528d9)" style="fill: #60b671"/>
   </g>
   <g id="patch_11">
    <path d="M 151.95 324.167437 
L 172.659089 324.167437 
L 172.659089 353.376937 
L 151.95 353.376937 
z
" clip-path="url(#pff938528d9)" style="fill: #88c35b"/>
   </g>
   <g id="patch_12">
    <path d="M 151.95 360.679312 
L 163.182048 360.679312 
L 163.182048 389.888812 
L 151.95 389.888812 
z
" clip-path="url(#pff938528d9)" style="fill: #b2c83b"/>
   </g>
   <g id="line2d_27">
    <path clip-path="url(#pff938528d9)" style="fill: none; stroke: #424242; stroke-width: 2.25; stroke-linecap: round"/>
   </g>
   <g id="line2d_28">
    <path clip-path="url(#pff938528d9)" style="fill: none; stroke: #424242; stroke-width: 2.25; stroke-linecap: round"/>
   </g>
   <g id="line2d_29">
    <path clip-path="url(#pff938528d9)" style="fill: none; stroke: #424242; stroke-width: 2.25; stroke-linecap: round"/>
   </g>
   <g id="line2d_30">
    <path clip-path="url(#pff938528d9)" style="fill: none; stroke: #424242; stroke-width: 2.25; stroke-linecap: round"/>
   </g>
   <g id="line2d_31">
    <path clip-path="url(#pff938528d9)" style="fill: none; stroke: #424242; stroke-width: 2.25; stroke-linecap: round"/>
   </g>
   <g id="line2d_32">
    <path clip-path="url(#pff938528d9)" style="fill: none; stroke: #424242; stroke-width: 2.25; stroke-linecap: round"/>
   </g>
   <g id="line2d_33">
    <path clip-path="url(#pff938528d9)" style="fill: none; stroke: #424242; stroke-width: 2.25; stroke-linecap: round"/>
   </g>
   <g id="line2d_34">
    <path clip-path="url(#pff938528d9)" style="fill: none; stroke: #424242; stroke-width: 2.25; stroke-linecap: round"/>
   </g>
   <g id="line2d_35">
    <path clip-path="url(#pff938528d9)" style="fill: none; stroke: #424242; stroke-width: 2.25; stroke-linecap: round"/>
   </g>
   <g id="line2d_36">
    <path clip-path="url(#pff938528d9)" style="fill: none; stroke: #424242; stroke-width: 2.25; stroke-linecap: round"/>
   </g>
   <g id="patch_13">
    <path d="M 151.95 393.54 
L 151.95 28.42125 
" style="fill: none; stroke: #cccccc; stroke-linejoin: miter; stroke-linecap: square"/>
   </g>
   <g id="patch_14">
    <path d="M 709.2 393.54 
L 709.2 28.42125 
" style="fill: none; stroke: #cccccc; stroke-linejoin: miter; stroke-linecap: square"/>
   </g>
   <g id="patch_15">
    <path d="M 151.95 393.54 
L 709.2 393.54 
" style="fill: none; stroke: #cccccc; stroke-linejoin: miter; stroke-linecap: square"/>
   </g>
   <g id="patch_16">
    <path d="M 151.95 28.42125 
L 709.2 28.42125 
" style="fill: none; stroke: #cccccc; stroke-linejoin: miter; stroke-linecap: square"/>
   </g>
   <g id="text_21">
    <!-- Top 10 reasons for clinic visits -->
    <g style="fill: #262626" transform="translate(314.245 22.42125) scale(0.16 -0.16)">
     <defs>
      <path id="Arial-BoldMT-54" d="M 1497 0 
L 1497 3806 
L 138 3806 
L 138 4581 
L 3778 4581 
L 3778 3806 
L 2422 3806 
L 2422 0 
L 1497 0 
z
" transform="scale(0.015625)"/>
      <path id="Arial-BoldMT-6f" d="M 256 1706 
Q 256 2144 472 2553 
Q 688 2963 1083 3178 
Q 1478 3394 1966 3394 
Q 2719 3394 3200 2905 
Q 3681 2416 3681 1669 
Q 3681 916 3195 420 
Q 2709 -75 1972 -75 
Q 1516 -75 1102 131 
Q 688 338 472 736 
Q 256 1134 256 1706 
z
M 1156 1659 
Q 1156 1166 1390 903 
Q 1625 641 1969 641 
Q 2313 641 2545 903 
Q 2778 1166 2778 1666 
Q 2778 2153 2545 2415 
Q 2313 2678 1969 2678 
Q 1625 2678 1390 2415 
Q 1156 2153 1156 1659 
z
" transform="scale(0.015625)"/>
      <path id="Arial-BoldMT-70" d="M 434 3319 
L 1253 3319 
L 1253 2831 
Q 1413 3081 1684 3237 
Q 1956 3394 2288 3394 
Q 2866 3394 3269 2941 
Q 3672 2488 3672 1678 
Q 3672 847 3265 386 
Q 2859 -75 2281 -75 
Q 2006 -75 1782 34 
Q 1559 144 1313 409 
L 1313 -1263 
L 434 -1263 
L 434 3319 
z
M 1303 1716 
Q 1303 1156 1525 889 
Q 1747 622 2066 622 
Q 2372 622 2575 867 
Q 2778 1113 2778 1672 
Q 2778 2194 2568 2447 
Q 2359 2700 2050 2700 
Q 1728 2700 1515 2451 
Q 1303 2203 1303 1716 
z
" transform="scale(0.015625)"/>
      <path id="Arial-BoldMT-20" transform="scale(0.015625)"/>
      <path id="Arial-BoldMT-31" d="M 2519 0 
L 1641 0 
L 1641 3309 
Q 1159 2859 506 2644 
L 506 3441 
Q 850 3553 1253 3867 
Q 1656 4181 1806 4600 
L 2519 4600 
L 2519 0 
z
" transform="scale(0.015625)"/>
      <path id="Arial-BoldMT-30" d="M 1756 4600 
Q 2422 4600 2797 4125 
Q 3244 3563 3244 2259 
Q 3244 959 2794 391 
Q 2422 -78 1756 -78 
Q 1088 -78 678 436 
Q 269 950 269 2269 
Q 269 3563 719 4131 
Q 1091 4600 1756 4600 
z
M 1756 3872 
Q 1597 3872 1472 3770 
Q 1347 3669 1278 3406 
Q 1188 3066 1188 2259 
Q 1188 1453 1269 1151 
Q 1350 850 1473 750 
Q 1597 650 1756 650 
Q 1916 650 2041 751 
Q 2166 853 2234 1116 
Q 2325 1453 2325 2259 
Q 2325 3066 2244 3367 
Q 2163 3669 2039 3770 
Q 1916 3872 1756 3872 
z
" transform="scale(0.015625)"/>
      <path id="Arial-BoldMT-72" d="M 1300 0 
L 422 0 
L 422 3319 
L 1238 3319 
L 1238 2847 
Q 1447 3181 1614 3287 
Q 1781 3394 1994 3394 
Q 2294 3394 2572 3228 
L 2300 2463 
Q 2078 2606 1888 2606 
Q 1703 2606 1575 2504 
Q 1447 2403 1373 2137 
Q 1300 1872 1300 1025 
L 1300 0 
z
" transform="scale(0.015625)"/>
      <path id="Arial-BoldMT-65" d="M 2381 1056 
L 3256 909 
Q 3088 428 2723 176 
Q 2359 -75 1813 -75 
Q 947 -75 531 491 
Q 203 944 203 1634 
Q 203 2459 634 2926 
Q 1066 3394 1725 3394 
Q 2466 3394 2894 2905 
Q 3322 2416 3303 1406 
L 1103 1406 
Q 1113 1016 1316 798 
Q 1519 581 1822 581 
Q 2028 581 2168 693 
Q 2309 806 2381 1056 
z
M 2431 1944 
Q 2422 2325 2234 2523 
Q 2047 2722 1778 2722 
Q 1491 2722 1303 2513 
Q 1116 2303 1119 1944 
L 2431 1944 
z
" transform="scale(0.015625)"/>
      <path id="Arial-BoldMT-61" d="M 1116 2306 
L 319 2450 
Q 453 2931 781 3162 
Q 1109 3394 1756 3394 
Q 2344 3394 2631 3255 
Q 2919 3116 3036 2902 
Q 3153 2688 3153 2116 
L 3144 1091 
Q 3144 653 3186 445 
Q 3228 238 3344 0 
L 2475 0 
Q 2441 88 2391 259 
Q 2369 338 2359 363 
Q 2134 144 1878 34 
Q 1622 -75 1331 -75 
Q 819 -75 523 203 
Q 228 481 228 906 
Q 228 1188 362 1408 
Q 497 1628 739 1745 
Q 981 1863 1438 1950 
Q 2053 2066 2291 2166 
L 2291 2253 
Q 2291 2506 2166 2614 
Q 2041 2722 1694 2722 
Q 1459 2722 1328 2630 
Q 1197 2538 1116 2306 
z
M 2291 1594 
Q 2122 1538 1756 1459 
Q 1391 1381 1278 1306 
Q 1106 1184 1106 997 
Q 1106 813 1243 678 
Q 1381 544 1594 544 
Q 1831 544 2047 700 
Q 2206 819 2256 991 
Q 2291 1103 2291 1419 
L 2291 1594 
z
" transform="scale(0.015625)"/>
      <path id="Arial-BoldMT-73" d="M 150 947 
L 1031 1081 
Q 1088 825 1259 692 
Q 1431 559 1741 559 
Q 2081 559 2253 684 
Q 2369 772 2369 919 
Q 2369 1019 2306 1084 
Q 2241 1147 2013 1200 
Q 950 1434 666 1628 
Q 272 1897 272 2375 
Q 272 2806 612 3100 
Q 953 3394 1669 3394 
Q 2350 3394 2681 3172 
Q 3013 2950 3138 2516 
L 2309 2363 
Q 2256 2556 2107 2659 
Q 1959 2763 1684 2763 
Q 1338 2763 1188 2666 
Q 1088 2597 1088 2488 
Q 1088 2394 1175 2328 
Q 1294 2241 1995 2081 
Q 2697 1922 2975 1691 
Q 3250 1456 3250 1038 
Q 3250 581 2869 253 
Q 2488 -75 1741 -75 
Q 1063 -75 667 200 
Q 272 475 150 947 
z
" transform="scale(0.015625)"/>
      <path id="Arial-BoldMT-6e" d="M 3478 0 
L 2600 0 
L 2600 1694 
Q 2600 2231 2544 2389 
Q 2488 2547 2361 2634 
Q 2234 2722 2056 2722 
Q 1828 2722 1647 2597 
Q 1466 2472 1398 2265 
Q 1331 2059 1331 1503 
L 1331 0 
L 453 0 
L 453 3319 
L 1269 3319 
L 1269 2831 
Q 1703 3394 2363 3394 
Q 2653 3394 2893 3289 
Q 3134 3184 3257 3021 
Q 3381 2859 3429 2653 
Q 3478 2447 3478 2063 
L 3478 0 
z
" transform="scale(0.015625)"/>
      <path id="Arial-BoldMT-66" d="M 75 3319 
L 563 3319 
L 563 3569 
Q 563 3988 652 4194 
Q 741 4400 980 4529 
Q 1219 4659 1584 4659 
Q 1959 4659 2319 4547 
L 2200 3934 
Q 1991 3984 1797 3984 
Q 1606 3984 1523 3895 
Q 1441 3806 1441 3553 
L 1441 3319 
L 2097 3319 
L 2097 2628 
L 1441 2628 
L 1441 0 
L 563 0 
L 563 2628 
L 75 2628 
L 75 3319 
z
" transform="scale(0.015625)"/>
      <path id="Arial-BoldMT-63" d="M 3353 2338 
L 2488 2181 
Q 2444 2441 2289 2572 
Q 2134 2703 1888 2703 
Q 1559 2703 1364 2476 
Q 1169 2250 1169 1719 
Q 1169 1128 1367 884 
Q 1566 641 1900 641 
Q 2150 641 2309 783 
Q 2469 925 2534 1272 
L 3397 1125 
Q 3263 531 2881 228 
Q 2500 -75 1859 -75 
Q 1131 -75 698 384 
Q 266 844 266 1656 
Q 266 2478 700 2936 
Q 1134 3394 1875 3394 
Q 2481 3394 2839 3133 
Q 3197 2872 3353 2338 
z
" transform="scale(0.015625)"/>
      <path id="Arial-BoldMT-6c" d="M 459 0 
L 459 4581 
L 1338 4581 
L 1338 0 
L 459 0 
z
" transform="scale(0.015625)"/>
      <path id="Arial-BoldMT-69" d="M 459 3769 
L 459 4581 
L 1338 4581 
L 1338 3769 
L 459 3769 
z
M 459 0 
L 459 3319 
L 1338 3319 
L 1338 0 
L 459 0 
z
" transform="scale(0.015625)"/>
      <path id="Arial-BoldMT-76" d="M 1372 0 
L 34 3319 
L 956 3319 
L 1581 1625 
L 1763 1059 
Q 1834 1275 1853 1344 
Q 1897 1484 1947 1625 
L 2578 3319 
L 3481 3319 
L 2163 0 
L 1372 0 
z
" transform="scale(0.015625)"/>
      <path id="Arial-BoldMT-74" d="M 1981 3319 
L 1981 2619 
L 1381 2619 
L 1381 1281 
Q 1381 875 1398 808 
Q 1416 741 1477 697 
Q 1538 653 1625 653 
Q 1747 653 1978 738 
L 2053 56 
Q 1747 -75 1359 -75 
Q 1122 -75 931 4 
Q 741 84 652 211 
Q 563 338 528 553 
Q 500 706 500 1172 
L 500 2619 
L 97 2619 
L 97 3319 
L 500 3319 
L 500 3978 
L 1381 4491 
L 1381 3319 
L 1981 3319 
z
" transform="scale(0.015625)"/>
     </defs>
     <use xlink:href="#Arial-BoldMT-54"/>
     <use xlink:href="#Arial-BoldMT-6f" transform="translate(53.708984 0)"/>
     <use xlink:href="#Arial-BoldMT-70" transform="translate(114.792969 0)"/>
     <use xlink:href="#Arial-BoldMT-20" transform="translate(175.876953 0)"/>
     <use xlink:href="#Arial-BoldMT-31" transform="translate(203.660156 0)"/>
     <use xlink:href="#Arial-BoldMT-30" transform="translate(259.275391 0)"/>
     <use xlink:href="#Arial-BoldMT-20" transform="translate(314.890625 0)"/>
     <use xlink:href="#Arial-BoldMT-72" transform="translate(342.673828 0)"/>
     <use xlink:href="#Arial-BoldMT-65" transform="translate(381.589844 0)"/>
     <use xlink:href="#Arial-BoldMT-61" transform="translate(437.205078 0)"/>
     <use xlink:href="#Arial-BoldMT-73" transform="translate(492.820312 0)"/>
     <use xlink:href="#Arial-BoldMT-6f" transform="translate(548.435547 0)"/>
     <use xlink:href="#Arial-BoldMT-6e" transform="translate(609.519531 0)"/>
     <use xlink:href="#Arial-BoldMT-73" transform="translate(670.603516 0)"/>
     <use xlink:href="#Arial-BoldMT-20" transform="translate(726.21875 0)"/>
     <use xlink:href="#Arial-BoldMT-66" transform="translate(754.001953 0)"/>
     <use xlink:href="#Arial-BoldMT-6f" transform="translate(787.302734 0)"/>
     <use xlink:href="#Arial-BoldMT-72" transform="translate(848.386719 0)"/>
     <use xlink:href="#Arial-BoldMT-20" transform="translate(887.302734 0)"/>
     <use xlink:href="#Arial-BoldMT-63" transform="translate(915.085938 0)"/>
     <use xlink:href="#Arial-BoldMT-6c" transform="translate(970.701172 0)"/>
     <use xlink:href="#Arial-BoldMT-69" transform="translate(998.484375 0)"/>
     <use xlink:href="#Arial-BoldMT-6e" transform="translate(1026.267578 0)"/>
     <use xlink:href="#Arial-BoldMT-69" transform="translate(1087.351562 0)"/>
     <use xlink:href="#Arial-BoldMT-63" transform="translate(1115.134766 0)"/>
     <use xlink:href="#Arial-BoldMT-20" transform="translate(1170.75 0)"/>
     <use xlink:href="#Arial-BoldMT-76" transform="translate(1198.533203 0)"/>
     <use xlink:href="#Arial-BoldMT-69" transform="translate(1254.148438 0)"/>
     <use xlink:href="#Arial-BoldMT-73" transform="translate(1281.931641 0)"/>
     <use xlink:href="#Arial-BoldMT-69" transform="translate(1337.546875 0)"/>
     <use xlink:href="#Arial-BoldMT-74" transform="translate(1365.330078 0)"/>
     <use xlink:href="#Arial-BoldMT-73" transform="translate(1398.630859 0)"/>
    </g>
   </g>
  </g>
 </g>
 <defs>
  <clipPath id="pff938528d9">
   <rect x="151.95" y="28.42125" width="557.25" height="365.11875"/>
  </clipPath>
 </defs>
</svg>
